<?xml version="1.0" encoding="UTF-8" standalone="no"?>
<!-- Created with Inkscape (http://www.inkscape.org/) -->

<svg
   xmlns:dc="http://purl.org/dc/elements/1.1/"
   xmlns:cc="http://creativecommons.org/ns#"
   xmlns:rdf="http://www.w3.org/1999/02/22-rdf-syntax-ns#"
   xmlns:svg="http://www.w3.org/2000/svg"
   xmlns="http://www.w3.org/2000/svg"
   xmlns:sodipodi="http://sodipodi.sourceforge.net/DTD/sodipodi-0.dtd"
   xmlns:inkscape="http://www.inkscape.org/namespaces/inkscape"
   width="210mm"
   height="297mm"
   viewBox="0 0 744.09448819 1052.3622047"
   id="svg5429"
   version="1.1"
   inkscape:version="0.91 r13725"
   sodipodi:docname="LOGOS_ELEMENTS_DECOUPE_CONDITIONNEL.svg">
  <defs
     id="defs5431" />
  <sodipodi:namedview
     id="base"
     pagecolor="#ffffff"
     bordercolor="#666666"
     borderopacity="1.0"
     inkscape:pageopacity="0.0"
     inkscape:pageshadow="2"
     inkscape:zoom="0.7"
     inkscape:cx="306.67872"
     inkscape:cy="538.11482"
     inkscape:document-units="px"
     inkscape:current-layer="layer1"
     showgrid="false"
     inkscape:window-width="1920"
     inkscape:window-height="1017"
     inkscape:window-x="1912"
     inkscape:window-y="-8"
     inkscape:window-maximized="1" />
  <metadata
     id="metadata5434">
    <rdf:RDF>
      <cc:Work
         rdf:about="">
        <dc:format>image/svg+xml</dc:format>
        <dc:type
           rdf:resource="http://purl.org/dc/dcmitype/StillImage" />
        <dc:title></dc:title>
      </cc:Work>
    </rdf:RDF>
  </metadata>
  <g
     inkscape:label="Calque 1"
     inkscape:groupmode="layer"
     id="layer1">
    <path
       style="fill:none;stroke:#000000;stroke-opacity:1"
       d="m 106.17624,16.169121 c -5.5198,0.083 -9.9284,4.62274 -9.8496,10.14258 l 0,34.33008 c -20.5584,4.14454 -36.1035,22.35782 -36.1035,44.113279 0,21.75547 15.5451,39.96874 36.1035,44.11328 l 0,105.04297 c -0.079,5.57816 4.4213,10.14242 10,10.14242 5.5787,0 10.0789,-4.56426 10,-10.14242 l 0,-105.54687 c 8.4912,-2.16562 16.0211,-6.7584 21.8184,-12.98633 l 88.9219,61.11914 c 4.552,3.25966 10.893,2.14781 14.0645,-2.46608 3.1714,-4.61389 1.9377,-10.93237 -2.7364,-14.01439 l -90.1758,-61.98437 c 1.3005,-4.19885 2.0039,-8.65863 2.0039,-13.27735 0,-20.969549 -14.4431,-38.647899 -33.8965,-43.609369 l 0,-34.83399 c 0.081,-5.63765 -4.5128,-10.22738 -10.1504,-10.14258 z m 86.8555,41.47657 c -5.8334,-0.0226 -8.7419,7.05505 -4.5781,11.14062 l 12.9941,13.11133 -13.1113,12.99414 c -2.6082,2.51632 -2.6551,6.679589 -0.1041,9.253959 2.5509,2.57438 6.7145,2.56557 9.2545,-0.0196 l 13.1113,-12.996099 12.9942,13.111329 c 2.511,2.63642 6.6974,2.69676 9.2834,0.13381 2.5859,-2.56296 2.5629,-6.749789 -0.051,-9.284199 l -12.9942,-13.11133 13.1114,-12.99414 c 4.2697,-4.1142 1.2535,-11.3286 -4.6739,-11.17969 -1.6885,0.0429 -3.294,0.74128 -4.4765,1.94727 l -13.1113,12.99414 -12.9942,-13.11133 c -1.2188,-1.26501 -2.8977,-1.98292 -4.6543,-1.99023 z m -87.8086,12.10937 c 19.3,0 35,15.7 35,34.999999 0,19.3 -15.7,35 -35,35 -19.3,0 -35,-15.7 -35,-35 0,-19.299999 15.7,-34.999999 35,-34.999999 z m 0.3985,10 c -4.1,-0.1 -7.9985,1.40117 -10.8985,4.20117 -2.9,2.9 -4.5,6.69883 -4.5,10.79883 l 5,0 5,0 c 0,-1.4 0.5,-2.59961 1.5,-3.59961 1,-0.9 2.1996,-1.50039 3.5996,-1.40039 2.6,0.1 4.8004,2.30039 4.9004,4.90039 0,1.6 -0.7,3.19922 -2,4.19922 -3.1,2.299999 -5.4012,5.301559 -6.7012,8.601559 -0.9,2.2 -1.2988,4.39883 -1.2988,6.79883 l 0,0.5 10,0 0,-0.59961 c 0,-2.8 1.5,-5.50039 4,-7.40039 3.9,-2.9 6.1,-7.600389 6,-12.400389 -0.2,-7.8 -6.8015,-14.39961 -14.6015,-14.59961 z m -5.3985,39.999999 0,10 10,0 0,-10 z m -42.2656,83.36914 0,0.006 c -1.6813,0.05 -3.2769,0.75288 -4.4492,1.95899 l -21.336,21.33398 -8.3945,-8.39453 c -1.2197,-1.25632 -2.8973,-1.96564 -4.6484,-1.96484 -5.8118,0.003 -8.6758,7.06902 -4.5059,11.11718 l 12.1875,12.1875 c 1.232,1.7534 3.2517,2.78446 5.3945,2.75196 0.028,1.9e-4 0.056,1.9e-4 0.086,0 0.02,-0.003 0.04,-0.008 0.061,-0.0117 2.0618,-0.0353 3.9851,-1.051 5.1758,-2.73438 l 25.1328,-25.13672 c 4.2345,-4.11563 1.1994,-11.2887 -4.7031,-11.11328 z m 46.6387,91.46874 c -5.519,0.083 -9.9273,4.6215 -9.8496,10.1406 l 0,175.8457 -9.7481,-9.4375 c -1.948,-1.885 -5.1281,0.056 -4.3418,2.6504 l 22.209,73.2129 c 0.7689,2.5254 4.3643,2.467 5.0508,-0.082 l 19.8242,-73.8945 c 0.4384,-1.6351 -0.7611,-3.2521 -2.4531,-3.3067 -0.7408,-0.024 -1.4572,0.2662 -1.9727,0.7988 l -8.5683,8.8516 0,-21.5488 c 0.4997,-0.194 0.9831,-0.4278 1.4453,-0.6992 l 124.1621,-71.1856 c 8.8641,-4.9175 5.6305,-18.3838 -4.5,-18.7402 -1.9114,-0.067 -3.8019,0.4157 -5.4473,1.3906 l -115.6601,66.3086 0,-130.1641 c 0.079,-5.6369 -4.5136,-10.2254 -10.1504,-10.1406 z"
       id="path5258"
       inkscape:connector-curvature="0"
       sodipodi:nodetypes="sccsccsccccsccsccsccccscccsccccccccsssssccccccccccsccsccccccccccccccccccccccscccccccccccccccccs" />
    <path
       inkscape:connector-curvature="0"
       style="color:#000000;font-style:normal;font-variant:normal;font-weight:normal;font-stretch:normal;font-size:medium;line-height:normal;font-family:sans-serif;text-indent:0;text-align:start;text-decoration:none;text-decoration-line:none;text-decoration-style:solid;text-decoration-color:#000000;letter-spacing:normal;word-spacing:normal;text-transform:none;direction:ltr;block-progression:tb;writing-mode:lr-tb;baseline-shift:baseline;text-anchor:start;white-space:normal;clip-rule:nonzero;display:inline;overflow:visible;visibility:visible;opacity:1;isolation:auto;mix-blend-mode:normal;color-interpolation:sRGB;color-interpolation-filters:linearRGB;solid-color:#000000;solid-opacity:1;fill:none;fill-opacity:1;fill-rule:evenodd;stroke:#000000;stroke-width:1;stroke-linecap:round;stroke-linejoin:round;stroke-miterlimit:4;stroke-dasharray:none;stroke-dashoffset:0;stroke-opacity:1;color-rendering:auto;image-rendering:auto;shape-rendering:auto;text-rendering:auto;enable-background:accumulate"
       d="m 361.92988,11.57454 a 10.001,10.001 0 0 0 -9.6406,10.33984 l 0.4902,24.03125 a 10.001,10.001 0 0 0 3.2735,7.19727 l 38.2051,34.70898 c -2.5893,5.67438 -4.045,11.96967 -4.045,18.59961 0,14.46798 6.8828,27.36208 17.5352,35.60156 l -51.6953,46.96485 a 10.001,10.001 0 0 0 -3.2735,7.31445 l -0.4921,56.0625 a 10.001,10.001 0 1 0 20,0.17578 l 0.4531,-51.68945 54.8652,-49.84766 a 10.001,10.001 0 0 0 0.207,-0.20117 c 2.4098,0.40117 4.8792,0.61914 7.4004,0.61914 1.6376,0 3.2547,-0.094 4.8477,-0.26562 -0.039,0.87546 -0.066,1.75387 -0.066,2.63867 l 0,62.99805 -12.5625,46.83203 a 2.627563,2.627563 0 0 0 4.4258,2.50781 l 18.8457,-19.46875 19.4707,18.84766 a 2.627563,2.627563 0 0 0 4.3418,-2.65039 l -14.5215,-47.8711 0,-61.19531 c 0,-3.79301 0.5326,-7.44272 1.5097,-10.89258 l 0,-0.002 c 7.4894,-5.41478 13.2505,-13.06999 16.295,-21.97656 6.0828,-3.89657 13.3502,-6.15235 21.2187,-6.15235 l 11.334,0 c 12.9345,0 24.2623,6.07102 31.334,15.5625 l 22.8066,0 c -9.0988,-20.89726 -29.9467,-35.5625 -54.1406,-35.5625 l -11.334,0 c -6.8623,0 -13.4506,1.19269 -19.584,3.35938 -3.9077,-20.85549 -22.2539,-36.70899 -44.2207,-36.70899 -10.9323,0 -20.9671,3.92902 -28.7754,10.44336 l -33.75,-30.66211 -0.4023,-19.72656 a 10.001,10.001 0 0 0 -10.3555,-9.93164 z m 191.2403,31.19141 0,0.006 c -1.6813,0.05 -3.277,0.75093 -4.4493,1.95704 l -21.3359,21.33593 -8.3945,-8.39453 c -1.2197,-1.25632 -2.8974,-1.96564 -4.6485,-1.96484 -5.8118,0.003 -8.6757,7.06903 -4.5058,11.11719 l 12.1894,12.1875 c 1.232,1.7534 3.2518,2.7825 5.3946,2.75 0.028,1.9e-4 0.054,1.9e-4 0.084,0 0.02,-0.003 0.042,-0.006 0.062,-0.01 2.0618,-0.0353 3.9832,-1.051 5.1739,-2.73437 l 25.1347,-25.13868 c 4.2345,-4.11563 1.1975,-11.28675 -4.705,-11.11132 z m -117.9571,28.68554 c 19.3,0 35,15.7 35,35 0,19.3 -15.7,35 -35,35 -19.3,0 -35,-15.7 -35,-35 0,-19.3 15.7,-35 35,-35 z m 0.4004,10 c -4.1,-0.1 -8.0004,1.40117 -10.9004,4.20117 -2.9,2.9 -4.5,6.69883 -4.5,10.79883 l 5,0 5,0 c 0,-1.4 0.5,-2.59961 1.5,-3.59961 1,-0.9 2.2016,-1.50039 3.6016,-1.40039 2.6,0.1 4.7984,2.30039 4.8984,4.90039 0,1.6 -0.7,3.19922 -2,4.19922 -3.1,2.3 -5.3992,5.30156 -6.6992,8.60156 -0.9,2.2 -1.3008,4.39883 -1.3008,6.79883 l 0,0.5 10,0 0,-0.59961 c 0,-2.8 1.5,-5.50039 4,-7.40039 3.9,-2.9 6.1,-7.60039 6,-12.40039 -0.2,-7.8 -6.7996,-14.39961 -14.5996,-14.59961 z m -5.4004,40 0,10 10,0 0,-10 -10,0 z m -129.7617,6.59961 a 6.50065,6.50065 0 0 0 -4.5781,11.14258 l 12.9941,13.10937 -13.1113,12.99414 a 6.50065,6.50065 0 1 0 9.1504,9.23438 l 13.1113,-12.99414 12.9942,13.11133 a 6.50065,6.50065 0 1 0 9.2324,-9.15235 l -12.9942,-13.10937 13.1114,-12.99414 a 6.50065,6.50065 0 0 0 -4.6739,-11.17969 6.50065,6.50065 0 0 0 -4.4765,1.94531 l -13.1114,12.99414 -12.9941,-13.11132 a 6.50065,6.50065 0 0 0 -4.6543,-1.99024 z m 62.1055,165.11327 a 10.001,10.001 0 0 0 -9.8496,10.1406 l 0,175.8457 -9.7481,-9.4375 a 2.627563,2.627563 0 0 0 -4.3418,2.6504 l 22.2071,73.2129 a 2.627563,2.627563 0 0 0 5.0527,-0.082 l 19.8223,-73.8945 a 2.627563,2.627563 0 0 0 -2.4532,-3.3067 2.627563,2.627563 0 0 0 -1.9707,0.7988 l -8.5683,8.8516 0,-174.6387 a 10.001,10.001 0 0 0 -10.1504,-10.1406 z m 87.1719,2.9238 a 2.627563,2.627563 0 0 0 -2.4747,1.9454 l -19.8222,73.8964 a 2.627563,2.627563 0 0 0 4.4258,2.5079 l 8.1367,-8.4043 0,45.5078 c 0,32.5261 26.4973,59.0234 59.0234,59.0234 l 11.334,0 c 21.4207,0 40.2217,-11.4948 50.5664,-28.6328 l -25.9004,0 c -6.6907,5.4113 -15.2506,8.6328 -24.666,8.6328 l -11.334,0 c -21.792,0 -39.0234,-17.2314 -39.0234,-39.0234 l 0,-47.5801 10.1797,9.8555 a 2.627563,2.627563 0 0 0 4.3418,-2.6504 l -22.209,-73.2149 a 2.627563,2.627563 0 0 0 -2.5781,-1.8633 z"
       id="path5290" />
  </g>
</svg>
