<?xml version="1.0" encoding="UTF-8" standalone="no"?>
<!-- Created with Inkscape (http://www.inkscape.org/) -->

<svg
   xmlns:sketch="http://www.bohemiancoding.com/sketch/ns"
   xmlns:dc="http://purl.org/dc/elements/1.1/"
   xmlns:cc="http://creativecommons.org/ns#"
   xmlns:rdf="http://www.w3.org/1999/02/22-rdf-syntax-ns#"
   xmlns:svg="http://www.w3.org/2000/svg"
   xmlns="http://www.w3.org/2000/svg"
   xmlns:sodipodi="http://sodipodi.sourceforge.net/DTD/sodipodi-0.dtd"
   xmlns:inkscape="http://www.inkscape.org/namespaces/inkscape"
   width="300mm"
   height="297mm"
   viewBox="0 0 1062.9921 1052.3622"
   id="svg5096"
   version="1.1"
   inkscape:version="0.91 r13725"
   sodipodi:docname="LOGOS_ELEMENTS_DECOUPE.svg">
  <defs
     id="defs5098">
    <inkscape:path-effect
       cusp_linecap_type="round"
       end_linecap_type="zerowidth"
       miter_limit="4"
       linejoin_type="round"
       start_linecap_type="zerowidth"
       interpolator_beta="0.2"
       interpolator_type="Linear"
       sort_points="true"
       offset_points="0,0.5"
       is_visible="true"
       id="path-effect10864"
       effect="powerstroke" />
    <inkscape:path-effect
       cusp_linecap_type="round"
       end_linecap_type="zerowidth"
       miter_limit="4"
       linejoin_type="round"
       start_linecap_type="zerowidth"
       interpolator_beta="0.2"
       interpolator_type="Linear"
       sort_points="true"
       offset_points="0,3.1785714"
       is_visible="true"
       id="path-effect6503"
       effect="powerstroke" />
    <inkscape:path-effect
       cusp_linecap_type="round"
       end_linecap_type="zerowidth"
       miter_limit="4"
       linejoin_type="round"
       start_linecap_type="zerowidth"
       interpolator_beta="0.2"
       interpolator_type="Linear"
       sort_points="true"
       offset_points="0,0.5"
       is_visible="true"
       id="path-effect6499"
       effect="powerstroke" />
    <inkscape:path-effect
       cusp_linecap_type="round"
       end_linecap_type="zerowidth"
       miter_limit="4"
       linejoin_type="round"
       start_linecap_type="zerowidth"
       interpolator_beta="0.2"
       interpolator_type="Linear"
       sort_points="true"
       offset_points="0,3.1785714"
       is_visible="true"
       id="path-effect6503-9"
       effect="powerstroke" />
  </defs>
  <sodipodi:namedview
     id="base"
     pagecolor="#ffffff"
     bordercolor="#666666"
     borderopacity="1.0"
     inkscape:pageopacity="0.0"
     inkscape:pageshadow="2"
     inkscape:zoom="0.7"
     inkscape:cx="722.93761"
     inkscape:cy="559.14713"
     inkscape:document-units="px"
     inkscape:current-layer="layer1"
     showgrid="false"
     inkscape:window-width="1920"
     inkscape:window-height="1017"
     inkscape:window-x="-8"
     inkscape:window-y="-8"
     inkscape:window-maximized="1" />
  <metadata
     id="metadata5101">
    <rdf:RDF>
      <cc:Work
         rdf:about="">
        <dc:format>image/svg+xml</dc:format>
        <dc:type
           rdf:resource="http://purl.org/dc/dcmitype/StillImage" />
        <dc:title></dc:title>
      </cc:Work>
    </rdf:RDF>
  </metadata>
  <g
     inkscape:label="Calque 1"
     inkscape:groupmode="layer"
     id="layer1">
    <flowRoot
       xml:space="preserve"
       id="flowRoot4150"
       style="font-style:normal;font-weight:normal;font-size:11px;line-height:125%;font-family:Sans;letter-spacing:0px;word-spacing:0px;fill:none;fill-opacity:1;stroke:#000000;stroke-width:0.90886894;stroke-linecap:butt;stroke-linejoin:miter;stroke-opacity:1;stroke-miterlimit:4;stroke-dasharray:none"
       transform="matrix(2.2005373,0,0,2.2005373,32.646998,551.63086)"><flowRegion
         id="flowRegion4152"><rect
           id="rect4154"
           width="95.338982"
           height="34.957626"
           x="-11.440678"
           y="63.559322"
           style="fill:none;stroke:#000000;stroke-opacity:1;stroke-width:0.90886894;stroke-miterlimit:4;stroke-dasharray:none" /></flowRegion><flowPara
         id="flowPara4156" /></flowRoot>    <flowRoot
       transform="matrix(2.2005373,0,0,2.2005373,154.64699,551.63086)"
       style="font-style:normal;font-weight:normal;font-size:11px;line-height:125%;font-family:Sans;letter-spacing:0px;word-spacing:0px;fill:none;fill-opacity:1;stroke:#000000;stroke-width:0.90886894;stroke-linecap:butt;stroke-linejoin:miter;stroke-opacity:1;stroke-miterlimit:4;stroke-dasharray:none"
       id="flowRoot5793"
       xml:space="preserve"><flowRegion
         id="flowRegion5795"><rect
           y="63.559322"
           x="-11.440678"
           height="34.957626"
           width="95.338982"
           id="rect5797"
           style="fill:none;stroke:#000000;stroke-opacity:1;stroke-width:0.90886894;stroke-miterlimit:4;stroke-dasharray:none" /></flowRegion><flowPara
         id="flowPara5799" /></flowRoot>    <flowRoot
       xml:space="preserve"
       id="flowRoot5805"
       style="font-style:normal;font-weight:normal;font-size:24.20590973px;line-height:125%;font-family:Sans;letter-spacing:0px;word-spacing:0px;fill:none;fill-opacity:1;stroke:#000000;stroke-width:2;stroke-linecap:butt;stroke-linejoin:miter;stroke-opacity:1;stroke-miterlimit:4;stroke-dasharray:none"><flowRegion
         id="flowRegion5807"><rect
           id="rect5809"
           width="209.79698"
           height="76.92556"
           x="249.47136"
           y="691.49554"
           style="fill:none;stroke:#000000;stroke-opacity:1;stroke-width:2;stroke-miterlimit:4;stroke-dasharray:none" /></flowRegion><flowPara
         id="flowPara5811" /></flowRoot>    <flowRoot
       style="font-style:normal;font-weight:normal;font-size:24.20590973px;line-height:125%;font-family:Sans;letter-spacing:0px;word-spacing:0px;fill:none;fill-opacity:1;stroke:#000000;stroke-width:2;stroke-linecap:butt;stroke-linejoin:miter;stroke-opacity:1;stroke-miterlimit:4;stroke-dasharray:none"
       id="flowRoot5817"
       xml:space="preserve"><flowRegion
         id="flowRegion5819"><rect
           y="691.49554"
           x="369.47134"
           height="76.92556"
           width="209.79698"
           id="rect5821"
           style="fill:none;stroke:#000000;stroke-opacity:1;stroke-width:2;stroke-miterlimit:4;stroke-dasharray:none" /></flowRegion><flowPara
         id="flowPara5823" /></flowRoot>    <flowRoot
       xml:space="preserve"
       id="flowRoot5829"
       style="font-style:normal;font-weight:normal;font-size:11px;line-height:125%;font-family:Sans;letter-spacing:0px;word-spacing:0px;fill:none;fill-opacity:1;stroke:#000000;stroke-width:0.90886894;stroke-linecap:butt;stroke-linejoin:miter;stroke-opacity:1;stroke-miterlimit:4;stroke-dasharray:none"
       transform="matrix(2.2005373,0,0,2.2005373,514.64699,551.63086)"><flowRegion
         id="flowRegion5831"><rect
           id="rect5833"
           width="95.338982"
           height="34.957626"
           x="-11.440678"
           y="63.559322"
           style="fill:none;stroke:#000000;stroke-opacity:1;stroke-width:0.90886894;stroke-miterlimit:4;stroke-dasharray:none" /></flowRegion><flowPara
         id="flowPara5835" /></flowRoot>    <flowRoot
       style="font-style:normal;font-weight:normal;font-size:24.20590973px;line-height:125%;font-family:Sans;letter-spacing:0px;word-spacing:0px;fill:none;fill-opacity:1;stroke:#000000;stroke-width:2;stroke-linecap:butt;stroke-linejoin:miter;stroke-opacity:1;stroke-miterlimit:4;stroke-dasharray:none"
       id="flowRoot5841"
       xml:space="preserve"><flowRegion
         id="flowRegion5843"><rect
           y="691.49554"
           x="609.47137"
           height="76.92556"
           width="209.79698"
           id="rect5845"
           style="fill:none;stroke:#000000;stroke-opacity:1;stroke-width:2;stroke-miterlimit:4;stroke-dasharray:none" /></flowRegion><flowPara
         id="flowPara5847" /></flowRoot>    <flowRoot
       xml:space="preserve"
       id="flowRoot5853"
       style="font-style:normal;font-weight:normal;font-size:11px;line-height:125%;font-family:Sans;letter-spacing:0px;word-spacing:0px;fill:none;fill-opacity:1;stroke:#000000;stroke-width:0.90886894;stroke-linecap:butt;stroke-linejoin:miter;stroke-opacity:1;stroke-miterlimit:4;stroke-dasharray:none"
       transform="matrix(2.2005373,0,0,2.2005373,754.64699,551.63086)"><flowRegion
         id="flowRegion5855"><rect
           id="rect5857"
           width="95.338982"
           height="34.957626"
           x="-11.440678"
           y="63.559322"
           style="fill:none;stroke:#000000;stroke-opacity:1;stroke-width:0.90886894;stroke-miterlimit:4;stroke-dasharray:none" /></flowRegion><flowPara
         id="flowPara5859" /></flowRoot>    <g
       id="g5949">
      <path
         style="fill:none;stroke:#000000;stroke-opacity:1;stroke-width:2;stroke-miterlimit:4;stroke-dasharray:none"
         sodipodi:nodetypes="ccscccscccssccc"
         inkscape:connector-curvature="0"
         id="path4"
         d="m 168.12828,184.81104 -46.35265,-55.05423 c -3.84878,-3.84878 -3.84878,-9.87295 0,-13.72172 3.84878,-3.84878 9.87295,-3.84878 13.72172,0 l 26.94144,26.43941 c 3.27382,-96.58317 39.64369,-108.49575 47.38076,-111.09162 2.47309,-0.46607 7.12884,-1.16489 8.48123,2.19449 1.35238,3.35941 -0.25323,6.95158 -3.61264,9.89935 -10.9983,9.65559 -21.17868,29.14428 -21.79381,98.99778 l 29.40187,-26.43941 c 3.84877,-3.84878 9.87294,-3.84878 13.72172,0 1.84072,1.84071 2.84475,4.35079 2.84475,6.86086 0,2.51007 -1.00403,5.02014 -2.84475,6.86086 l -48.81309,55.05423 c -5.35482,5.18748 -13.72173,5.18748 -19.07655,0 z" />
      <path
         style="fill:none;stroke:#000000;stroke-opacity:1;stroke-width:2;stroke-miterlimit:4;stroke-dasharray:none"
         d="m 362.39024,182.81105 46.35265,-55.05423 c 3.84878,-3.84878 3.84878,-9.87297 0,-13.72174 -3.84878,-3.84878 -9.87295,-3.84878 -13.72172,0 L 368.07973,140.4745 C 364.80591,43.891327 328.43604,31.978747 320.69897,29.382867 c -2.47309,-0.46606 -7.12884,-1.1649 -8.48123,2.19452 -1.35238,3.35939 0.25323,6.95157 3.61264,9.89933 10.9983,9.6556 21.17868,29.14429 21.79381,98.997783 l -29.40187,-26.43942 c -3.84877,-3.84876 -9.87294,-3.84876 -13.72172,0 -1.84072,1.84072 -2.84475,4.35079 -2.84475,6.86086 0,2.51007 1.00403,5.02014 2.84475,6.86086 l 48.81309,55.05425 c 5.35482,5.18748 13.72173,5.18748 19.07655,0 z"
         id="path4138"
         inkscape:connector-curvature="0"
         sodipodi:nodetypes="ccscccscccssccc" />
      <path
         style="fill:none;stroke:#000000;stroke-opacity:1;stroke-width:2;stroke-miterlimit:4;stroke-dasharray:none"
         sodipodi:nodetypes="sscczzzccssccccs"
         inkscape:connector-curvature="0"
         id="path4140"
         d="m 203.96309,95.689812 c 0,2.468237 0.96154,4.939088 2.88592,6.863468 3.84878,3.84878 9.87491,3.84878 13.72369,0 l 26.94078,-26.440719 c 1.33432,83.733909 5.92879,98.704969 7.77861,102.720089 1.84983,4.01513 5.13071,8.07944 9.43243,8.04699 4.30175,-0.0325 7.90034,-4.5376 9.35721,-8.02374 1.45688,-3.48614 6.12013,-19.09326 6.02352,-102.837751 l 27.38855,25.976631 c 3.91397,3.78245 9.93795,3.67865 13.72041,-0.23533 1.89123,-1.956986 2.81045,-4.441338 2.76826,-6.909223 -0.0422,-2.467869 -1.0466,-4.919974 -3.00358,-6.811196 L 273.69272,33.784522 c -5.90614,-4.712959 -15.09095,-4.842814 -20.48909,-0.01004 l -46.35462,55.055121 c -1.92438,1.924388 -2.88592,4.391973 -2.88592,6.860209 z" />
      <path
         style="fill:none;stroke:#000000;stroke-opacity:1;stroke-width:2;stroke-miterlimit:4;stroke-dasharray:none"
         d="m 36.820222,103.35278 c 0,2.46824 0.96154,4.93908 2.88593,6.86347 3.84877,3.84878 9.8749,3.84878 13.72368,0 l 26.94078,-26.440716 c 3.56201,41.222256 5.92879,55.197086 7.77861,59.212206 1.84982,4.01513 5.1307,8.07945 9.43245,8.04701 4.301718,-0.0325 7.900308,-4.53763 9.357188,-8.02376 1.45688,-3.48614 3.89245,-14.56986 6.02353,-59.329866 l 27.38854,25.976616 c 3.91397,3.78246 9.93797,3.67866 13.72043,-0.23532 1.89122,-1.95699 2.81044,-4.44134 2.76826,-6.90923 -0.0422,-2.46786 -1.0466,-4.919966 -3.00359,-6.811186 l -47.28618,-54.25451 c -5.90615,-4.71296 -15.090948,-4.84281 -20.489088,-0.01 l -46.35461,55.05512 c -1.92439,1.92439 -2.88593,4.391966 -2.88593,6.860206 z"
         id="path4148"
         inkscape:connector-curvature="0"
         sodipodi:nodetypes="sscczzzccssccccs" />
      <path
         sodipodi:nodetypes="cccccscssssssssssssssssssssccsccccccc"
         inkscape:connector-curvature="0"
         id="path12"
         sketch:type="MSShapeGroup"
         d="m 138.38061,611.30943 c -0.94843,-1.58879 -2.54162,-2.4646 -4.5177,-2.4646 -3.66829,0.0132 -8.08257,1.46775 -11.51981,3.79372 -3.17318,2.14333 -7.7679,6.1219 -11.64745,12.90175 -0.72837,1.27191 -1.92327,2.13452 -3.20178,2.34137 -0.004,-0.29487 -0.002,-0.63375 -0.002,-0.94843 0,-0.68216 0.002,-1.49196 -0.0264,-2.38538 l 0,-61.91432 c 0,-4.85438 -3.94777,-8.80215 -8.802153,-8.80215 -4.854386,0 -8.80215,3.94777 -8.80215,8.80215 l 0,47.31155 c 0,0.60515 -0.495121,1.10027 -1.100268,1.10027 -0.605148,0 -1.100269,-0.49512 -1.100269,-1.10027 l 0,-58.31423 c 0,-4.85439 -3.947764,-8.80215 -8.802149,-8.80215 -4.854385,0 -8.802149,3.94776 -8.802149,8.80215 l 0,58.31423 c 0,0.60515 -0.495121,1.10027 -1.100269,1.10027 -0.605148,0 -1.100269,-0.49512 -1.100269,-1.10027 l 0,-52.81289 c 0,-4.24704 -3.454843,-7.70188 -7.70188,-7.70188 -4.247037,0 -7.701881,3.45484 -7.701881,7.70188 l 0,57.21397 c 0,0.60515 -0.495121,1.10027 -1.100268,1.10027 -0.605148,0 -1.100269,-0.49512 -1.100269,-1.10027 l 0,-45.11102 c 0,-4.24703 -3.454844,-7.70188 -7.723886,-7.70188 -4.244836,0 -7.70188,3.45485 -7.70188,7.70188 l 0.0044,77.45232 c 2.13012,30.77231 21.004128,34.92252 39.187168,34.92252 15.064878,0 28.595982,-7.47522 35.268012,-19.41974 0.85821,-1.38634 3.18198,-5.03483 5.93265,-9.36108 6.88328,-10.81124 12.64869,-19.89506 13.5003,-21.51026 1.89906,-3.59568 4.01818,-6.40576 6.12629,-8.12658 1.91007,-1.55798 3.07635,-3.54727 4.02478,-5.29229 0.48632,-0.90442 0.91323,-4.23824 -0.48852,-6.59061 z"
         style="fill:none;fill-rule:evenodd;stroke:#000000;stroke-width:2;stroke-miterlimit:4;stroke-dasharray:none;stroke-opacity:1" />
      <path
         style="opacity:1;fill:none;fill-opacity:1;fill-rule:nonzero;stroke:#000000;stroke-width:2;stroke-linecap:round;stroke-linejoin:round;stroke-miterlimit:4;stroke-dasharray:none;stroke-dashoffset:0;stroke-opacity:1"
         d="m 169.77353,711.13226 c -22.32414,-0.0758 -48.96193,13.0664 -58.89244,39.43696 l -19.809065,49.8505 14.472625,0 a 5.5611171,8.1315828 50.410031 0 0 4.21698,6.54601 5.5611171,8.1315828 50.410031 0 0 9.21674,-6.54601 l 18.69872,0 c -1.09916,-3.91908 -0.82193,-8.61304 1.10568,-13.65591 5.22477,-13.66857 20.59895,-24.79117 34.26752,-24.79117 13.66857,0 20.54114,11.1226 15.31637,24.79117 -1.9276,5.04287 -5.23861,9.73683 -9.33417,13.65591 l 23.69098,0 11.19684,-30.38256 -4.44522,0 c -2.09556,0 -3.13661,-1.6877 -2.3356,-3.78326 l 1.71321,-4.48199 c 0.80105,-2.09557 3.1323,-3.78327 5.22786,-3.78327 l 4.20619,0 c 7.08826,-22.68236 -0.62747,-41.20433 -22.39897,-43.57111 l -21.69629,-3.04163 c -1.45476,-0.15815 -2.9297,-0.23859 -4.41798,-0.24364 z m 39.71357,32.03133 c 0.3054,-0.01 0.5911,-0.005 0.8607,0.009 1.79652,0.10009 2.82959,0.71042 3.54761,1.22584 1.31298,0.94249 1.18445,2.24408 -0.25868,2.60492 0,0 -4.06956,-1.52367 -8.39843,-0.44131 -4.3289,1.0825 -6.10382,3.20646 -8.06358,4.57547 -1.95974,1.36899 -3.86888,2.22031 -3.86888,2.22031 0,0 4.95517,-7.04751 10.7495,-9.04061 0.76994,-0.26483 1.48006,-0.47693 2.13687,-0.64356 1.29308,-0.3279 2.37863,-0.48025 3.2949,-0.51026 z m -37.9503,22.76852 c -11.52866,0 -24.38775,9.30304 -28.79454,20.8317 -4.4068,11.52866 1.34019,20.83169 12.86885,20.83169 11.52867,0 24.38928,-9.30303 28.79607,-20.83169 4.40679,-11.52866 -1.34173,-20.8317 -12.87038,-20.8317 z"
         id="path4168"
         inkscape:connector-curvature="0" />
      <path
         inkscape:connector-curvature="0"
         id="path4172"
         d="m 93.189453,760.39453 a 3.550355,3.550355 0 0 0 -3.179687,2.29297 l -13.369141,33.94141 a 3.5505683,3.5505683 0 0 0 6.607422,2.60156 l 13.367187,-33.94141 a 3.550355,3.550355 0 0 0 -3.425781,-4.89453 z"
         style="color:#000000;font-style:normal;font-variant:normal;font-weight:normal;font-stretch:normal;font-size:medium;line-height:normal;font-family:sans-serif;text-indent:0;text-align:start;text-decoration:none;text-decoration-line:none;text-decoration-style:solid;text-decoration-color:#000000;letter-spacing:normal;word-spacing:normal;text-transform:none;direction:ltr;block-progression:tb;writing-mode:lr-tb;baseline-shift:baseline;text-anchor:start;white-space:normal;clip-rule:nonzero;display:inline;overflow:visible;visibility:visible;opacity:1;isolation:auto;mix-blend-mode:normal;color-interpolation:sRGB;color-interpolation-filters:linearRGB;solid-color:#000000;solid-opacity:1;fill:none;fill-opacity:1;fill-rule:evenodd;stroke:#000000;stroke-width:2;stroke-linecap:round;stroke-linejoin:round;stroke-miterlimit:4;stroke-dasharray:none;stroke-dashoffset:0;stroke-opacity:1;color-rendering:auto;image-rendering:auto;shape-rendering:auto;text-rendering:auto;enable-background:accumulate" />
      <path
         inkscape:connector-curvature="0"
         id="path4174"
         d="m 77.265625,766.5332 a 3.550355,3.550355 0 0 0 -3.179687,2.29297 l -10.951172,27.80274 a 3.550355,3.550355 0 1 0 6.605468,2.60156 l 10.951172,-27.80274 a 3.550355,3.550355 0 0 0 -3.425781,-4.89453 z"
         style="color:#000000;font-style:normal;font-variant:normal;font-weight:normal;font-stretch:normal;font-size:medium;line-height:normal;font-family:sans-serif;text-indent:0;text-align:start;text-decoration:none;text-decoration-line:none;text-decoration-style:solid;text-decoration-color:#000000;letter-spacing:normal;word-spacing:normal;text-transform:none;direction:ltr;block-progression:tb;writing-mode:lr-tb;baseline-shift:baseline;text-anchor:start;white-space:normal;clip-rule:nonzero;display:inline;overflow:visible;visibility:visible;opacity:1;isolation:auto;mix-blend-mode:normal;color-interpolation:sRGB;color-interpolation-filters:linearRGB;solid-color:#000000;solid-opacity:1;fill:none;fill-opacity:1;fill-rule:evenodd;stroke:#000000;stroke-width:2;stroke-linecap:round;stroke-linejoin:round;stroke-miterlimit:4;stroke-dasharray:none;stroke-dashoffset:0;stroke-opacity:1;color-rendering:auto;image-rendering:auto;shape-rendering:auto;text-rendering:auto;enable-background:accumulate" />
      <path
         inkscape:connector-curvature="0"
         id="path4176"
         d="m 61.339844,772.67188 a 3.550355,3.550355 0 0 0 -3.179688,2.29296 l -8.53125,21.66407 a 3.550355,3.550355 0 1 0 6.605469,2.60156 l 8.533203,-21.66211 a 3.550355,3.550355 0 0 0 -3.427734,-4.89648 z"
         style="color:#000000;font-style:normal;font-variant:normal;font-weight:normal;font-stretch:normal;font-size:medium;line-height:normal;font-family:sans-serif;text-indent:0;text-align:start;text-decoration:none;text-decoration-line:none;text-decoration-style:solid;text-decoration-color:#000000;letter-spacing:normal;word-spacing:normal;text-transform:none;direction:ltr;block-progression:tb;writing-mode:lr-tb;baseline-shift:baseline;text-anchor:start;white-space:normal;clip-rule:nonzero;display:inline;overflow:visible;visibility:visible;opacity:1;isolation:auto;mix-blend-mode:normal;color-interpolation:sRGB;color-interpolation-filters:linearRGB;solid-color:#000000;solid-opacity:1;fill:none;fill-opacity:1;fill-rule:evenodd;stroke:#000000;stroke-width:2;stroke-linecap:round;stroke-linejoin:round;stroke-miterlimit:4;stroke-dasharray:none;stroke-dashoffset:0;stroke-opacity:1;color-rendering:auto;image-rendering:auto;shape-rendering:auto;text-rendering:auto;enable-background:accumulate" />
      <path
         style="fill:none;stroke:#000000;stroke-opacity:1;stroke-width:2;stroke-miterlimit:4;stroke-dasharray:none"
         d="m 508.12828,179.09675 -46.35265,-55.05423 c -3.84878,-3.84878 -3.84878,-9.87295 0,-13.72172 3.84878,-3.84878 9.87295,-3.84878 13.72172,0 l 26.94144,26.43941 c 3.27382,-96.583166 39.64369,-108.495746 47.38076,-111.091616 2.47309,-0.46607 7.12884,-1.16489 8.48123,2.19449 1.35238,3.35941 -0.25323,6.95158 -3.61264,9.89935 -10.9983,9.65559 -21.17868,29.14428 -21.79381,98.997776 L 562.2962,110.3208 c 3.84877,-3.84878 9.87294,-3.84878 13.72172,0 1.84072,1.84071 2.84475,4.35079 2.84475,6.86086 0,2.51007 -1.00403,5.02014 -2.84475,6.86086 l -48.81309,55.05423 c -5.35482,5.18748 -13.72173,5.18748 -19.07655,0 z"
         id="path5719"
         inkscape:connector-curvature="0"
         sodipodi:nodetypes="ccscccscccssccc" />
      <path
         style="fill:none;stroke:#000000;stroke-opacity:1;stroke-width:2;stroke-miterlimit:4;stroke-dasharray:none"
         sodipodi:nodetypes="ccscccscccssccc"
         inkscape:connector-curvature="0"
         id="path5721"
         d="m 702.39024,177.09676 46.35265,-55.05423 c 3.84878,-3.84878 3.84878,-9.87297 0,-13.72174 -3.84878,-3.84878 -9.87295,-3.84878 -13.72172,0 l -26.94144,26.43942 C 704.80591,38.177041 668.43604,26.264461 660.69897,23.668581 c -2.47309,-0.46606 -7.12884,-1.1649 -8.48123,2.19452 -1.35238,3.35939 0.25323,6.95157 3.61264,9.89933 10.9983,9.6556 21.17868,29.14429 21.79381,98.997779 l -29.40187,-26.43942 c -3.84877,-3.84876 -9.87294,-3.84876 -13.72172,0 -1.84072,1.84072 -2.84475,4.35079 -2.84475,6.86086 0,2.51007 1.00403,5.02014 2.84475,6.86086 l 48.81309,55.05425 c 5.35482,5.18748 13.72173,5.18748 19.07655,0 z" />
      <path
         style="fill:none;stroke:#000000;stroke-opacity:1;stroke-width:2;stroke-miterlimit:4;stroke-dasharray:none"
         d="m 543.96309,89.975526 c 0,2.468237 0.96154,4.939085 2.88592,6.863473 3.84878,3.848781 9.87491,3.848781 13.72369,0 l 26.94078,-26.440724 c 1.33432,83.733905 5.92879,98.704965 7.77861,102.720085 1.84983,4.01513 5.13071,8.07944 9.43243,8.04699 4.30175,-0.0325 7.90034,-4.5376 9.35721,-8.02374 1.45688,-3.48614 6.12013,-19.09326 6.02352,-102.837747 l 27.38855,25.976628 c 3.91397,3.782459 9.93795,3.678656 13.72041,-0.235328 1.89123,-1.956985 2.81045,-4.441337 2.76826,-6.909222 -0.0422,-2.467869 -1.0466,-4.919974 -3.00358,-6.811196 L 613.69272,28.070236 c -5.90614,-4.712959 -15.09095,-4.842814 -20.48909,-0.01004 l -46.35462,55.055121 c -1.92438,1.924388 -2.88592,4.391973 -2.88592,6.860209 z"
         id="path5723"
         inkscape:connector-curvature="0"
         sodipodi:nodetypes="sscczzzccssccccs" />
      <path
         style="fill:none;stroke:#000000;stroke-opacity:1;stroke-width:2;stroke-miterlimit:4;stroke-dasharray:none"
         sodipodi:nodetypes="sscczzzccssccccs"
         inkscape:connector-curvature="0"
         id="path5725"
         d="m 376.82023,97.638497 c 0,2.468243 0.96154,4.939083 2.88593,6.863463 3.84877,3.84878 9.8749,3.84878 13.72368,0 l 26.94078,-26.440712 c 3.56201,41.222252 5.92879,55.197082 7.77861,59.212202 1.84982,4.01513 5.1307,8.07945 9.43245,8.04701 4.30172,-0.0325 7.90031,-4.53763 9.35719,-8.02376 1.45688,-3.48614 3.89245,-14.56986 6.02353,-59.329862 l 27.38853,25.976612 c 3.91397,3.78246 9.93797,3.67866 13.72043,-0.23532 1.89122,-1.95698 2.81044,-4.441333 2.76826,-6.909222 -0.0422,-2.46786 -1.0466,-4.91997 -3.00359,-6.81119 l -47.28617,-54.25451 c -5.90615,-4.71296 -15.09095,-4.84281 -20.48909,-0.01 l -46.35461,55.05512 c -1.92439,1.92439 -2.88593,4.39197 -2.88593,6.860209 z" />
      <path
         style="fill:none;stroke:#000000;stroke-opacity:1;stroke-width:2;stroke-miterlimit:4;stroke-dasharray:none"
         sodipodi:nodetypes="ccscccscccssccc"
         inkscape:connector-curvature="0"
         id="path5727"
         d="m 845.27114,177.66818 -46.35265,-55.05423 c -3.84878,-3.84878 -3.84878,-9.87295 0,-13.72172 3.84878,-3.84878 9.87295,-3.84878 13.72172,0 l 26.94144,26.43941 c 3.27382,-96.583167 39.64369,-108.495747 47.38076,-111.091617 2.47309,-0.46607 7.12884,-1.16489 8.48123,2.19449 1.35238,3.35941 -0.25323,6.95158 -3.61264,9.89935 -10.9983,9.65559 -21.17868,29.14428 -21.79381,98.997777 l 29.40187,-26.43941 c 3.84877,-3.84878 9.87294,-3.84878 13.72172,0 1.84072,1.84071 2.84475,4.35079 2.84475,6.86086 0,2.51007 -1.00403,5.02014 -2.84475,6.86086 l -48.81309,55.05423 c -5.35482,5.18748 -13.72173,5.18748 -19.07655,0 z" />
      <path
         style="fill:none;stroke:#000000;stroke-opacity:1;stroke-width:2;stroke-miterlimit:4;stroke-dasharray:none"
         sodipodi:nodetypes="sscczzzccssccccs"
         inkscape:connector-curvature="0"
         id="path5731"
         d="m 881.10595,88.546955 c 0,2.468237 0.96154,4.939085 2.88592,6.863473 3.84878,3.848778 9.87491,3.848778 13.72369,0 l 26.94078,-26.440724 c 1.33432,83.733906 5.92879,98.704966 7.77861,102.720086 1.84983,4.01513 5.13071,8.07944 9.43243,8.04699 4.30175,-0.0325 7.90034,-4.5376 9.35721,-8.02374 1.45688,-3.48614 6.12013,-19.09326 6.02352,-102.837748 l 27.38855,25.976628 c 3.91397,3.782456 9.93795,3.678656 13.72041,-0.235328 1.89123,-1.956985 2.81043,-4.441337 2.76823,-6.909222 -0.042,-2.467869 -1.0466,-4.919974 -3.00355,-6.811196 L 950.83558,26.641665 c -5.90614,-4.712959 -15.09095,-4.842814 -20.48909,-0.01004 l -46.35462,55.055121 c -1.92438,1.924388 -2.88592,4.391973 -2.88592,6.860209 z" />
      <path
         style="fill:none;stroke:#000000;stroke-opacity:1;stroke-width:2;stroke-miterlimit:4;stroke-dasharray:none"
         d="m 713.96309,96.209926 c 0,2.46824 0.96154,4.939084 2.88593,6.863464 3.84877,3.84878 9.8749,3.84878 13.72368,0 l 26.94078,-26.440713 c 3.56201,41.222253 5.92879,55.197083 7.77861,59.212203 1.84982,4.01513 5.1307,8.07945 9.43245,8.04701 4.30172,-0.0325 7.90031,-4.53763 9.35719,-8.02376 1.45688,-3.48614 3.89245,-14.56986 6.02353,-59.329863 l 27.38853,25.976613 c 3.91397,3.78246 9.93797,3.67866 13.72043,-0.23532 1.89122,-1.95698 2.81044,-4.441334 2.76826,-6.909223 -0.0422,-2.46786 -1.0466,-4.91997 -3.00359,-6.81119 l -47.28617,-54.25451 c -5.90615,-4.71296 -15.09095,-4.84281 -20.48909,-0.01 l -46.35461,55.05512 c -1.92439,1.92439 -2.88593,4.39197 -2.88593,6.860209 z"
         id="path5733"
         inkscape:connector-curvature="0"
         sodipodi:nodetypes="sscczzzccssccccs" />
      <path
         sodipodi:nodetypes="ccscccccccssssssssssccccsssssssssscccccscccssccccccccccccccc"
         id="path5745"
         style="opacity:1;fill:none;fill-opacity:1;fill-rule:nonzero;stroke:#000000;stroke-width:2;stroke-linecap:round;stroke-linejoin:round;stroke-miterlimit:4;stroke-dasharray:none;stroke-dashoffset:0;stroke-opacity:1"
         d="m 681.31735,394.94952 -32.39729,0.58301 c 2.13712,31.45302 -18.99677,74.19273 -68.49012,79.21688 -49.49336,5.02415 -80.66746,-31.11546 -84.2349,-78.61595 -0.83799,-11.5013 4.25743,-35.02419 7.22149,-45.88717 -10.40411,16.85394 -17.22459,44.56116 -15.77482,64.31461 3.89152,51.82168 53.05594,88.6768 104.87764,84.7854 51.62512,-3.88902 92.41106,-52.7516 88.798,-104.39678 z m -91.90783,7.14904 c 7.6,-4.1 13.3,-14.1 14.4,-26.3 0.1,-0.7 0.6,-1.2 1.3,-1.2 l 1.9,0 c 0.7,0 1.3,-0.6 1.3,-1.3 l 0,-4.3 c 0,-0.7 -0.6,-1.3 -1.3,-1.3 l -50.4,0 c -0.7,0 -1.3,0.6 -1.3,1.3 l 0,4.4 c 0,0.7 0.6,1.3 1.3,1.3 l 1.9,0 c 0.7,0 1.2,0.5 1.3,1.2 1.1,12.1 6.8,22.2 14.4,26.3 0.9,0.5 0.9,1.8 0,2.2 -7.6,4 -13.3,14 -14.4,26.2 -0.1,0.7 -0.6,1.2 -1.3,1.2 l -1.9,0 c -0.7,0 -1.3,0.6 -1.3,1.3 l 0,4.4 c 0,0.7 0.6,1.3 1.3,1.3 l 50.3,0 c 0.7,0 1.3,-0.6 1.3,-1.3 l 0,-4.4 c 0,-0.7 -0.6,-1.3 -1.3,-1.3 l -1.9,0 c -0.7,0 -1.2,-0.5 -1.3,-1.2 -1.1,-12.1 -6.8,-22.2 -14.4,-26.3 -0.7,-0.5 -0.7,-1.7 0.1,-2.2 z m 7.2,27.5 c 0.2,0.7 -0.2,1.4 -0.9,1.5 -0.8,0.2 -1.6,0.2 -2.4,0.2 l -8.9,0 -2.6,0 -2.6,0 -8.9,0 c -0.8,0 -1.7,0 -2.4,-0.2 -0.7,-0.2 -1.1,-0.9 -0.9,-1.5 1.7,-6 5.1,-11.4 9.8,-15.4 1.4,-1.2 2.9,-2.4 4,-3.8 0.5,-0.7 1.5,-0.7 2,0 1.1,1.4 2.6,2.6 4,3.8 4.7,4 8.1,9.4 9.8,15.4 z m -9.8,-35.2 c -1.4,1.2 -2.9,2.4 -4,3.8 -0.5,0.7 -1.5,0.7 -2,0 -1,-1.3 -2.3,-2.3 -3.6,-3.4 -0.3,-0.3 -0.2,-0.8 0.2,-1 2.7,-1 5.4,-2.2 7.9,-3.7 2.9,-1.7 5.7,-3.5 8.4,-5.4 0.2,-0.2 0.5,0.1 0.4,0.4 -1.8,3.5 -4.3,6.7 -7.3,9.3 z"
         inkscape:connector-curvature="0" />
      <path
         inkscape:connector-curvature="0"
         d="m 575.4625,343.8079 32.39729,-0.58301 c -2.13712,-31.45302 18.99677,-74.19273 68.49012,-79.21688 49.49336,-5.02415 80.66746,31.11546 84.2349,78.61595 0.83799,11.5013 -4.25743,35.02419 -7.22149,45.88717 10.40411,-16.85394 17.22459,-44.56116 15.77482,-64.31461 -3.89152,-51.82168 -53.05594,-88.6768 -104.87764,-84.7854 -51.62512,3.88902 -92.41106,52.7516 -88.798,104.39678 z m 91.90783,-7.14904 c -7.6,4.1 -13.3,14.1 -14.4,26.3 -0.1,0.7 -0.6,1.2 -1.3,1.2 l -1.9,0 c -0.7,0 -1.3,0.6 -1.3,1.3 l 0,4.3 c 0,0.7 0.6,1.3 1.3,1.3 l 50.4,0 c 0.7,0 1.3,-0.6 1.3,-1.3 l 0,-4.4 c 0,-0.7 -0.6,-1.3 -1.3,-1.3 l -1.9,0 c -0.7,0 -1.2,-0.5 -1.3,-1.2 -1.1,-12.1 -6.8,-22.2 -14.4,-26.3 -0.9,-0.5 -0.9,-1.8 0,-2.2 7.6,-4 13.3,-14 14.4,-26.2 0.1,-0.7 0.6,-1.2 1.3,-1.2 l 1.9,0 c 0.7,0 1.3,-0.6 1.3,-1.3 l 0,-4.4 c 0,-0.7 -0.6,-1.3 -1.3,-1.3 l -50.3,0 c -0.7,0 -1.3,0.6 -1.3,1.3 l 0,4.4 c 0,0.7 0.6,1.3 1.3,1.3 l 1.9,0 c 0.7,0 1.2,0.5 1.3,1.2 1.1,12.1 6.8,22.2 14.4,26.3 0.7,0.5 0.7,1.7 -0.1,2.2 z m -7.2,-27.5 c -0.2,-0.7 0.2,-1.4 0.9,-1.5 0.8,-0.2 1.6,-0.2 2.4,-0.2 l 8.9,0 2.6,0 2.6,0 8.9,0 c 0.8,0 1.7,0 2.4,0.2 0.7,0.2 1.1,0.9 0.9,1.5 -1.7,6 -5.1,11.4 -9.8,15.4 -1.4,1.2 -2.9,2.4 -4,3.8 -0.5,0.7 -1.5,0.7 -2,0 -1.1,-1.4 -2.6,-2.6 -4,-3.8 -4.7,-4 -8.1,-9.4 -9.8,-15.4 z m 9.8,35.2 c 1.4,-1.2 2.9,-2.4 4,-3.8 0.5,-0.7 1.5,-0.7 2,0 1,1.3 2.3,2.3 3.6,3.4 0.3,0.3 0.2,0.8 -0.2,1 -2.7,1 -5.4,2.2 -7.9,3.7 -2.9,1.7 -5.7,3.5 -8.4,5.4 -0.2,0.2 -0.5,-0.1 -0.4,-0.4 1.8,-3.5 4.3,-6.7 7.3,-9.3 z"
         style="opacity:1;fill:none;fill-opacity:1;fill-rule:nonzero;stroke:#000000;stroke-width:2;stroke-linecap:round;stroke-linejoin:round;stroke-miterlimit:4;stroke-dasharray:none;stroke-dashoffset:0;stroke-opacity:1"
         id="path5751"
         sodipodi:nodetypes="ccscccccccssssssssssccccsssssssssscccccscccssccccccccccccccc" />
      <path
         sodipodi:nodetypes="ccscccccccssssssssssccccsssssssssscccccscccssccccccccccccccc"
         id="path5757"
         style="opacity:1;fill:none;fill-opacity:1;fill-rule:nonzero;stroke:#000000;stroke-width:2;stroke-linecap:round;stroke-linejoin:round;stroke-miterlimit:4;stroke-dasharray:none;stroke-dashoffset:0;stroke-opacity:1"
         d="m 922.34781,393.95968 -32.39729,0.58301 c 2.13712,31.45302 -18.99677,74.19273 -68.49012,79.21688 -49.49336,5.02415 -80.66746,-31.11546 -84.2349,-78.61595 -0.83799,-11.5013 4.25743,-35.02419 7.22149,-45.88717 -10.40411,16.85394 -17.22459,44.56116 -15.77482,64.3146 3.89152,51.82169 53.05594,88.67681 104.87764,84.78541 51.62512,-3.88902 92.41106,-52.7516 88.798,-104.39678 z m -91.90783,7.14904 c 7.6,-4.1 13.3,-14.1 14.4,-26.3 0.1,-0.7 0.6,-1.2 1.3,-1.2 l 1.9,0 c 0.7,0 1.3,-0.6 1.3,-1.3 l 0,-4.3 c 0,-0.7 -0.6,-1.3 -1.3,-1.3 l -50.4,0 c -0.7,0 -1.3,0.6 -1.3,1.3 l 0,4.4 c 0,0.7 0.6,1.3 1.3,1.3 l 1.9,0 c 0.7,0 1.2,0.5 1.3,1.2 1.1,12.1 6.8,22.2 14.4,26.3 0.9,0.5 0.9,1.8 0,2.2 -7.6,4 -13.3,14 -14.4,26.2 -0.1,0.7 -0.6,1.2 -1.3,1.2 l -1.9,0 c -0.7,0 -1.3,0.6 -1.3,1.3 l 0,4.4 c 0,0.7 0.6,1.3 1.3,1.3 l 50.3,0 c 0.7,0 1.3,-0.6 1.3,-1.3 l 0,-4.4 c 0,-0.7 -0.6,-1.3 -1.3,-1.3 l -1.9,0 c -0.7,0 -1.2,-0.5 -1.3,-1.2 -1.1,-12.1 -6.8,-22.2 -14.4,-26.3 -0.7,-0.5 -0.7,-1.7 0.1,-2.2 z m 7.2,27.5 c 0.2,0.7 -0.2,1.4 -0.9,1.5 -0.8,0.2 -1.6,0.2 -2.4,0.2 l -8.9,0 -2.6,0 -2.6,0 -8.9,0 c -0.8,0 -1.7,0 -2.4,-0.2 -0.7,-0.2 -1.1,-0.9 -0.9,-1.5 1.7,-6 5.1,-11.4 9.8,-15.4 1.4,-1.2 2.9,-2.4 4,-3.8 0.5,-0.7 1.5,-0.7 2,0 1.1,1.4 2.6,2.6 4,3.8 4.7,4 8.1,9.4 9.8,15.4 z m -9.8,-35.2 c -1.4,1.2 -2.9,2.4 -4,3.8 -0.5,0.7 -1.5,0.7 -2,0 -1,-1.3 -2.3,-2.3 -3.6,-3.4 -0.3,-0.3 -0.2,-0.8 0.2,-1 2.7,-1 5.4,-2.2 7.9,-3.7 2.9,-1.7 5.7,-3.5 8.4,-5.4 0.2,-0.2 0.5,0.1 0.4,0.4 -1.8,3.5 -4.3,6.7 -7.3,9.3 z"
         inkscape:connector-curvature="0" />
      <path
         inkscape:connector-curvature="0"
         d="m 821.13262,342.9602 32.39729,-0.58301 c -2.13712,-31.45302 18.99677,-74.19273 68.49012,-79.21688 49.49336,-5.02415 80.66747,31.11546 84.23487,78.61595 0.838,11.5013 -4.2574,35.02419 -7.22146,45.88717 10.40406,-16.85394 17.22456,-44.56116 15.77486,-64.31461 -3.8916,-51.82168 -53.05598,-88.6768 -104.87768,-84.7854 -51.62512,3.88902 -92.41106,52.7516 -88.798,104.39678 z m 91.90783,-7.14904 c -7.6,4.1 -13.3,14.1 -14.4,26.3 -0.1,0.7 -0.6,1.2 -1.3,1.2 l -1.9,0 c -0.7,0 -1.3,0.6 -1.3,1.3 l 0,4.3 c 0,0.7 0.6,1.3 1.3,1.3 l 50.4,0 c 0.7,0 1.3,-0.6 1.3,-1.3 l 0,-4.4 c 0,-0.7 -0.6,-1.3 -1.3,-1.3 l -1.9,0 c -0.7,0 -1.2,-0.5 -1.3,-1.2 -1.1,-12.1 -6.8,-22.2 -14.4,-26.3 -0.9,-0.5 -0.9,-1.8 0,-2.2 7.6,-4 13.3,-14 14.4,-26.2 0.1,-0.7 0.6,-1.2 1.3,-1.2 l 1.9,0 c 0.7,0 1.3,-0.6 1.3,-1.3 l 0,-4.4 c 0,-0.7 -0.6,-1.3 -1.3,-1.3 l -50.3,0 c -0.7,0 -1.3,0.6 -1.3,1.3 l 0,4.4 c 0,0.7 0.6,1.3 1.3,1.3 l 1.9,0 c 0.7,0 1.2,0.5 1.3,1.2 1.1,12.1 6.8,22.2 14.4,26.3 0.7,0.5 0.7,1.7 -0.1,2.2 z m -7.2,-27.5 c -0.2,-0.7 0.2,-1.4 0.9,-1.5 0.8,-0.2 1.6,-0.2 2.4,-0.2 l 8.9,0 2.6,0 2.6,0 8.9,0 c 0.8,0 1.7,0 2.4,0.2 0.7,0.2 1.1,0.9 0.9,1.5 -1.7,6 -5.1,11.4 -9.8,15.4 -1.4,1.2 -2.9,2.4 -4,3.8 -0.5,0.7 -1.5,0.7 -2,0 -1.1,-1.4 -2.6,-2.6 -4,-3.8 -4.7,-4 -8.1,-9.4 -9.8,-15.4 z m 9.8,35.2 c 1.4,-1.2 2.9,-2.4 4,-3.8 0.5,-0.7 1.5,-0.7 2,0 1,1.3 2.3,2.3 3.6,3.4 0.3,0.3 0.2,0.8 -0.2,1 -2.7,1 -5.4,2.2 -7.9,3.7 -2.9,1.7 -5.7,3.5 -8.4,5.4 -0.2,0.2 -0.5,-0.1 -0.4,-0.4 1.8,-3.5 4.3,-6.7 7.3,-9.3 z"
         style="opacity:1;fill:none;fill-opacity:1;fill-rule:nonzero;stroke:#000000;stroke-width:2;stroke-linecap:round;stroke-linejoin:round;stroke-miterlimit:4;stroke-dasharray:none;stroke-dashoffset:0;stroke-opacity:1"
         id="path5763"
         sodipodi:nodetypes="ccscccccccssssssssssccccsssssssssscccccscccssccccccccccccccc" />
      <path
         inkscape:connector-curvature="0"
         d="m 451.00257,386.8683 -32.39729,0.58301 c 2.13712,31.45302 -18.99677,74.19273 -68.49012,79.21688 -49.49336,5.02415 -80.66746,-31.11546 -84.2349,-78.61595 -0.83799,-11.5013 4.25743,-35.02419 7.22148,-45.88717 -10.4041,16.85394 -17.22458,44.56116 -15.77481,64.3146 3.89152,51.82169 53.05594,88.67681 104.87764,84.78541 51.62512,-3.88902 92.41106,-52.7516 88.798,-104.39678 z m -91.90783,7.14904 c 7.6,-4.1 13.3,-14.1 14.4,-26.3 0.1,-0.7 0.6,-1.2 1.3,-1.2 l 1.9,0 c 0.7,0 1.3,-0.6 1.3,-1.3 l 0,-4.3 c 0,-0.7 -0.6,-1.3 -1.3,-1.3 l -50.4,0 c -0.7,0 -1.3,0.6 -1.3,1.3 l 0,4.4 c 0,0.7 0.6,1.3 1.3,1.3 l 1.9,0 c 0.7,0 1.2,0.5 1.3,1.2 1.1,12.1 6.8,22.2 14.4,26.3 0.9,0.5 0.9,1.8 0,2.2 -7.6,4 -13.3,14 -14.4,26.2 -0.1,0.7 -0.6,1.2 -1.3,1.2 l -1.9,0 c -0.7,0 -1.3,0.6 -1.3,1.3 l 0,4.4 c 0,0.7 0.6,1.3 1.3,1.3 l 50.3,0 c 0.7,0 1.3,-0.6 1.3,-1.3 l 0,-4.4 c 0,-0.7 -0.6,-1.3 -1.3,-1.3 l -1.9,0 c -0.7,0 -1.2,-0.5 -1.3,-1.2 -1.1,-12.1 -6.8,-22.2 -14.4,-26.3 -0.7,-0.5 -0.7,-1.7 0.1,-2.2 z m 7.2,27.5 c 0.2,0.7 -0.2,1.4 -0.9,1.5 -0.8,0.2 -1.6,0.2 -2.4,0.2 l -8.9,0 -2.6,0 -2.6,0 -8.9,0 c -0.8,0 -1.7,0 -2.4,-0.2 -0.7,-0.2 -1.1,-0.9 -0.9,-1.5 1.7,-6 5.1,-11.4 9.8,-15.4 1.4,-1.2 2.9,-2.4 4,-3.8 0.5,-0.7 1.5,-0.7 2,0 1.1,1.4 2.6,2.6 4,3.8 4.7,4 8.1,9.4 9.8,15.4 z m -9.8,-35.2 c -1.4,1.2 -2.9,2.4 -4,3.8 -0.5,0.7 -1.5,0.7 -2,0 -1,-1.3 -2.3,-2.3 -3.6,-3.4 -0.3,-0.3 -0.2,-0.8 0.2,-1 2.7,-1 5.4,-2.2 7.9,-3.7 2.9,-1.7 5.7,-3.5 8.4,-5.4 0.2,-0.2 0.5,0.1 0.4,0.4 -1.8,3.5 -4.3,6.7 -7.3,9.3 z"
         style="opacity:1;fill:none;fill-opacity:1;fill-rule:nonzero;stroke:#000000;stroke-width:2;stroke-linecap:round;stroke-linejoin:round;stroke-miterlimit:4;stroke-dasharray:none;stroke-dashoffset:0;stroke-opacity:1"
         id="path5769"
         sodipodi:nodetypes="ccscccccccssssssssssccccsssssssssscccccscccssccccccccccccccc" />
      <path
         sodipodi:nodetypes="ccscccccccssssssssssccccsssssssssscccccscccssccccccccccccccc"
         id="path5775"
         style="opacity:1;fill:none;fill-opacity:1;fill-rule:nonzero;stroke:#000000;stroke-width:2;stroke-linecap:round;stroke-linejoin:round;stroke-miterlimit:4;stroke-dasharray:none;stroke-dashoffset:0;stroke-opacity:1"
         d="m 345.14772,335.72668 32.39729,-0.58301 c -2.13712,-31.45302 18.99677,-74.19273 68.49012,-79.21688 49.49336,-5.02415 80.66746,31.11546 84.2349,78.61595 0.83799,11.5013 -4.25743,35.02419 -7.22149,45.88717 10.40411,-16.85394 17.22459,-44.56116 15.77482,-64.31461 -3.89152,-51.82168 -53.05594,-88.6768 -104.87764,-84.7854 -51.62512,3.88902 -92.41106,52.7516 -88.798,104.39678 z m 91.90783,-7.14904 c -7.6,4.1 -13.3,14.1 -14.4,26.3 -0.1,0.7 -0.6,1.2 -1.3,1.2 l -1.9,0 c -0.7,0 -1.3,0.6 -1.3,1.3 l 0,4.3 c 0,0.7 0.6,1.3 1.3,1.3 l 50.4,0 c 0.7,0 1.3,-0.6 1.3,-1.3 l 0,-4.4 c 0,-0.7 -0.6,-1.3 -1.3,-1.3 l -1.9,0 c -0.7,0 -1.2,-0.5 -1.3,-1.2 -1.1,-12.1 -6.8,-22.2 -14.4,-26.3 -0.9,-0.5 -0.9,-1.8 0,-2.2 7.6,-4 13.3,-14 14.4,-26.2 0.1,-0.7 0.6,-1.2 1.3,-1.2 l 1.9,0 c 0.7,0 1.3,-0.6 1.3,-1.3 l 0,-4.4 c 0,-0.7 -0.6,-1.3 -1.3,-1.3 l -50.3,0 c -0.7,0 -1.3,0.6 -1.3,1.3 l 0,4.4 c 0,0.7 0.6,1.3 1.3,1.3 l 1.9,0 c 0.7,0 1.2,0.5 1.3,1.2 1.1,12.1 6.8,22.2 14.4,26.3 0.7,0.5 0.7,1.7 -0.1,2.2 z m -7.2,-27.5 c -0.2,-0.7 0.2,-1.4 0.9,-1.5 0.8,-0.2 1.6,-0.2 2.4,-0.2 l 8.9,0 2.6,0 2.6,0 8.9,0 c 0.8,0 1.7,0 2.4,0.2 0.7,0.2 1.1,0.9 0.9,1.5 -1.7,6 -5.1,11.4 -9.8,15.4 -1.4,1.2 -2.9,2.4 -4,3.8 -0.5,0.7 -1.5,0.7 -2,0 -1.1,-1.4 -2.6,-2.6 -4,-3.8 -4.7,-4 -8.1,-9.4 -9.8,-15.4 z m 9.8,35.2 c 1.4,-1.2 2.9,-2.4 4,-3.8 0.5,-0.7 1.5,-0.7 2,0 1,1.3 2.3,2.3 3.6,3.4 0.3,0.3 0.2,0.8 -0.2,1 -2.7,1 -5.4,2.2 -7.9,3.7 -2.9,1.7 -5.7,3.5 -8.4,5.4 -0.2,0.2 -0.5,-0.1 -0.4,-0.4 1.8,-3.5 4.3,-6.7 7.3,-9.3 z"
         inkscape:connector-curvature="0" />
      <path
         sodipodi:nodetypes="ccscccccccssssssssssccccsssssssssscccccscccssccccccccccccccc"
         id="path5781"
         style="opacity:1;fill:none;fill-opacity:1;fill-rule:nonzero;stroke:#000000;stroke-width:2;stroke-linecap:round;stroke-linejoin:round;stroke-miterlimit:4;stroke-dasharray:none;stroke-dashoffset:0;stroke-opacity:1"
         d="m 218.66749,390.90891 -32.39729,0.58301 c 2.13712,31.45302 -18.99677,74.19273 -68.49012,79.21688 -49.493356,5.02415 -80.667462,-31.11546 -84.234903,-78.61595 -0.83799,-11.5013 4.257435,-35.02419 7.221488,-45.88717 -10.404103,16.85394 -17.224585,44.56116 -15.774815,64.3146 3.891522,51.82169 53.05594,88.67681 104.87764,84.78541 51.62512,-3.88902 92.41106,-52.7516 88.798,-104.39678 z m -91.90783,7.14904 c 7.6,-4.1 13.3,-14.1 14.4,-26.3 0.1,-0.7 0.6,-1.2 1.3,-1.2 l 1.9,0 c 0.7,0 1.3,-0.6 1.3,-1.3 l 0,-4.3 c 0,-0.7 -0.6,-1.3 -1.3,-1.3 l -50.400004,0 c -0.7,0 -1.3,0.6 -1.3,1.3 l 0,4.4 c 0,0.7 0.6,1.3 1.3,1.3 l 1.9,0 c 0.7,0 1.2,0.5 1.3,1.2 1.1,12.1 6.800004,22.2 14.400004,26.3 0.9,0.5 0.9,1.8 0,2.2 -7.6,4 -13.300004,14 -14.400004,26.2 -0.1,0.7 -0.6,1.2 -1.3,1.2 l -1.9,0 c -0.7,0 -1.3,0.6 -1.3,1.3 l 0,4.4 c 0,0.7 0.6,1.3 1.3,1.3 l 50.300004,0 c 0.7,0 1.3,-0.6 1.3,-1.3 l 0,-4.4 c 0,-0.7 -0.6,-1.3 -1.3,-1.3 l -1.9,0 c -0.7,0 -1.2,-0.5 -1.3,-1.2 -1.1,-12.1 -6.8,-22.2 -14.4,-26.3 -0.7,-0.5 -0.7,-1.7 0.1,-2.2 z m 7.2,27.5 c 0.2,0.7 -0.2,1.4 -0.9,1.5 -0.8,0.2 -1.6,0.2 -2.4,0.2 l -8.9,0 -2.6,0 -2.6,0 -8.9,0 c -0.8,0 -1.7,0 -2.4,-0.2 -0.7,-0.2 -1.1,-0.9 -0.9,-1.5 1.7,-6 5.1,-11.4 9.8,-15.4 1.4,-1.2 2.9,-2.4 4,-3.8 0.5,-0.7 1.5,-0.7 2,0 1.1,1.4 2.6,2.6 4,3.8 4.7,4 8.1,9.4 9.8,15.4 z m -9.8,-35.2 c -1.4,1.2 -2.9,2.4 -4,3.8 -0.5,0.7 -1.5,0.7 -2,0 -1,-1.3 -2.3,-2.3 -3.6,-3.4 -0.3,-0.3 -0.2,-0.8 0.2,-1 2.7,-1 5.4,-2.2 7.9,-3.7 2.9,-1.7 5.7,-3.5 8.4,-5.4 0.2,-0.2 0.5,0.1 0.4,0.4 -1.8,3.5 -4.3,6.7 -7.3,9.3 z"
         inkscape:connector-curvature="0" />
      <path
         inkscape:connector-curvature="0"
         d="m 112.81263,339.76729 32.39729,-0.58301 c -2.13712,-31.45302 18.99677,-74.19273 68.49012,-79.21688 49.49336,-5.02415 80.66746,31.11546 84.2349,78.61595 0.83799,11.5013 -4.25743,35.02419 -7.22149,45.88717 10.40411,-16.85394 17.22459,-44.56116 15.77482,-64.31461 -3.89152,-51.82168 -53.05594,-88.6768 -104.87764,-84.7854 -51.62512,3.88902 -92.41106,52.7516 -88.798,104.39678 z m 91.90783,-7.14904 c -7.6,4.1 -13.3,14.1 -14.4,26.3 -0.1,0.7 -0.6,1.2 -1.3,1.2 l -1.9,0 c -0.7,0 -1.3,0.6 -1.3,1.3 l 0,4.3 c 0,0.7 0.6,1.3 1.3,1.3 l 50.4,0 c 0.7,0 1.3,-0.6 1.3,-1.3 l 0,-4.4 c 0,-0.7 -0.6,-1.3 -1.3,-1.3 l -1.9,0 c -0.7,0 -1.2,-0.5 -1.3,-1.2 -1.1,-12.1 -6.8,-22.2 -14.4,-26.3 -0.9,-0.5 -0.9,-1.8 0,-2.2 7.6,-4 13.3,-14 14.4,-26.2 0.1,-0.7 0.6,-1.2 1.3,-1.2 l 1.9,0 c 0.7,0 1.3,-0.6 1.3,-1.3 l 0,-4.4 c 0,-0.7 -0.6,-1.3 -1.3,-1.3 l -50.3,0 c -0.7,0 -1.3,0.6 -1.3,1.3 l 0,4.4 c 0,0.7 0.6,1.3 1.3,1.3 l 1.9,0 c 0.7,0 1.2,0.5 1.3,1.2 1.1,12.1 6.8,22.2 14.4,26.3 0.7,0.5 0.7,1.7 -0.1,2.2 z m -7.2,-27.5 c -0.2,-0.7 0.2,-1.4 0.9,-1.5 0.8,-0.2 1.6,-0.2 2.4,-0.2 l 8.9,0 2.6,0 2.6,0 8.9,0 c 0.8,0 1.7,0 2.4,0.2 0.7,0.2 1.1,0.9 0.9,1.5 -1.7,6 -5.1,11.4 -9.8,15.4 -1.4,1.2 -2.9,2.4 -4,3.8 -0.5,0.7 -1.5,0.7 -2,0 -1.1,-1.4 -2.6,-2.6 -4,-3.8 -4.7,-4 -8.1,-9.4 -9.8,-15.4 z m 9.8,35.2 c 1.4,-1.2 2.9,-2.4 4,-3.8 0.5,-0.7 1.5,-0.7 2,0 1,1.3 2.3,2.3 3.6,3.4 0.3,0.3 0.2,0.8 -0.2,1 -2.7,1 -5.4,2.2 -7.9,3.7 -2.9,1.7 -5.7,3.5 -8.4,5.4 -0.2,0.2 -0.5,-0.1 -0.4,-0.4 1.8,-3.5 4.3,-6.7 7.3,-9.3 z"
         style="opacity:1;fill:none;fill-opacity:1;fill-rule:nonzero;stroke:#000000;stroke-width:2;stroke-linecap:round;stroke-linejoin:round;stroke-miterlimit:4;stroke-dasharray:none;stroke-dashoffset:0;stroke-opacity:1"
         id="path5787"
         sodipodi:nodetypes="ccscccccccssssssssssccccsssssssssscccccscccssccccccccccccccc" />
      <path
         style="fill:none;fill-rule:evenodd;stroke:#000000;stroke-width:2;stroke-opacity:1;stroke-miterlimit:4;stroke-dasharray:none"
         d="m 260.38061,611.30943 c -0.94843,-1.58879 -2.54162,-2.4646 -4.5177,-2.4646 -3.6683,0.0132 -8.08258,1.46775 -11.51981,3.79372 -3.17318,2.14333 -7.7679,6.1219 -11.64745,12.90175 -0.72838,1.27191 -1.92327,2.13452 -3.20178,2.34137 -0.004,-0.29487 -0.002,-0.63375 -0.002,-0.94843 0,-0.68216 0.002,-1.49196 -0.0264,-2.38538 l 0,-61.91432 c 0,-4.85438 -3.94776,-8.80215 -8.80215,-8.80215 -4.85438,0 -8.80215,3.94777 -8.80215,8.80215 l 0,47.31155 c 0,0.60515 -0.49512,1.10027 -1.10026,1.10027 -0.60515,0 -1.10027,-0.49512 -1.10027,-1.10027 l 0,-58.31423 c 0,-4.85439 -3.94777,-8.80215 -8.80215,-8.80215 -4.85439,0 -8.80215,3.94776 -8.80215,8.80215 l 0,58.31423 c 0,0.60515 -0.49512,1.10027 -1.10027,1.10027 -0.60515,0 -1.10027,-0.49512 -1.10027,-1.10027 l 0,-52.81289 c 0,-4.24704 -3.45484,-7.70188 -7.70188,-7.70188 -4.24704,0 -7.70188,3.45484 -7.70188,7.70188 l 0,57.21397 c 0,0.60515 -0.49512,1.10027 -1.10027,1.10027 -0.60515,0 -1.10027,-0.49512 -1.10027,-1.10027 l 0,-45.11102 c 0,-4.24703 -3.45484,-7.70188 -7.72388,-7.70188 -4.24484,0 -7.70188,3.45485 -7.70188,7.70188 l 0.004,77.45232 c 2.13012,30.77231 21.00413,34.92252 39.18717,34.92252 15.06487,0 28.59598,-7.47522 35.26801,-19.41974 0.85821,-1.38634 3.18197,-5.03483 5.93265,-9.36108 6.88328,-10.81124 12.64868,-19.89506 13.50029,-21.51026 1.89907,-3.59568 4.01818,-6.40576 6.1263,-8.12658 1.91006,-1.55798 3.07635,-3.54727 4.02478,-5.29229 0.48632,-0.90442 0.91322,-4.23824 -0.48852,-6.59061 z"
         sketch:type="MSShapeGroup"
         id="path5791"
         inkscape:connector-curvature="0"
         sodipodi:nodetypes="cccccscssssssssssssssssssssccscccccc" />
      <path
         sodipodi:nodetypes="cccccscssssssssssssssssssssccscccccc"
         inkscape:connector-curvature="0"
         id="path5803"
         sketch:type="MSShapeGroup"
         d="m 380.38061,611.30943 c -0.94843,-1.58879 -2.54162,-2.4646 -4.5177,-2.4646 -3.6683,0.0132 -8.08258,1.46775 -11.51981,3.79372 -3.17318,2.14333 -7.7679,6.1219 -11.64745,12.90175 -0.72838,1.27191 -1.92327,2.13452 -3.20178,2.34137 -0.004,-0.29487 -0.002,-0.63375 -0.002,-0.94843 0,-0.68216 0.002,-1.49196 -0.0264,-2.38538 l 0,-61.91432 c 0,-4.85438 -3.94776,-8.80215 -8.80215,-8.80215 -4.85438,0 -8.80215,3.94777 -8.80215,8.80215 l 0,47.31155 c 0,0.60515 -0.49512,1.10027 -1.10026,1.10027 -0.60515,0 -1.10027,-0.49512 -1.10027,-1.10027 l 0,-58.31423 c 0,-4.85439 -3.94777,-8.80215 -8.80215,-8.80215 -4.85439,0 -8.80215,3.94776 -8.80215,8.80215 l 0,58.31423 c 0,0.60515 -0.49512,1.10027 -1.10027,1.10027 -0.60515,0 -1.10027,-0.49512 -1.10027,-1.10027 l 0,-52.81289 c 0,-4.24704 -3.45484,-7.70188 -7.70188,-7.70188 -4.24704,0 -7.70188,3.45484 -7.70188,7.70188 l 0,57.21397 c 0,0.60515 -0.49512,1.10027 -1.10027,1.10027 -0.60515,0 -1.10027,-0.49512 -1.10027,-1.10027 l 0,-45.11102 c 0,-4.24703 -3.45484,-7.70188 -7.72388,-7.70188 -4.24484,0 -7.70188,3.45485 -7.70188,7.70188 l 0.004,77.45232 c 2.13012,30.77231 21.00413,34.92252 39.18717,34.92252 15.06487,0 28.59598,-7.47522 35.26801,-19.41974 0.85821,-1.38634 3.18197,-5.03483 5.93265,-9.36108 6.88328,-10.81124 12.64868,-19.89506 13.50029,-21.51026 1.89907,-3.59568 4.01818,-6.40576 6.1263,-8.12658 1.91006,-1.55798 3.07635,-3.54727 4.02478,-5.29229 0.48632,-0.90442 0.91322,-4.23824 -0.48852,-6.59061 z"
         style="fill:none;fill-rule:evenodd;stroke:#000000;stroke-width:2;stroke-opacity:1;stroke-miterlimit:4;stroke-dasharray:none" />
      <path
         style="fill:none;fill-rule:evenodd;stroke:#000000;stroke-width:2;stroke-opacity:1;stroke-miterlimit:4;stroke-dasharray:none"
         d="m 500.38061,611.30943 c -0.94843,-1.58879 -2.54162,-2.4646 -4.5177,-2.4646 -3.6683,0.0132 -8.08258,1.46775 -11.51981,3.79372 -3.17318,2.14333 -7.7679,6.1219 -11.64745,12.90175 -0.72838,1.27191 -1.92327,2.13452 -3.20178,2.34137 -0.004,-0.29487 -0.002,-0.63375 -0.002,-0.94843 0,-0.68216 0.002,-1.49196 -0.0264,-2.38538 l 0,-61.91432 c 0,-4.85438 -3.94776,-8.80215 -8.80215,-8.80215 -4.85438,0 -8.80215,3.94777 -8.80215,8.80215 l 0,47.31155 c 0,0.60515 -0.49512,1.10027 -1.10026,1.10027 -0.60515,0 -1.10027,-0.49512 -1.10027,-1.10027 l 0,-58.31423 c 0,-4.85439 -3.94777,-8.80215 -8.80215,-8.80215 -4.85439,0 -8.80215,3.94776 -8.80215,8.80215 l 0,58.31423 c 0,0.60515 -0.49512,1.10027 -1.10027,1.10027 -0.60515,0 -1.10027,-0.49512 -1.10027,-1.10027 l 0,-52.81289 c 0,-4.24704 -3.45484,-7.70188 -7.70188,-7.70188 -4.24704,0 -7.70188,3.45484 -7.70188,7.70188 l 0,57.21397 c 0,0.60515 -0.49512,1.10027 -1.10027,1.10027 -0.60515,0 -1.10027,-0.49512 -1.10027,-1.10027 l 0,-45.11102 c 0,-4.24703 -3.45484,-7.70188 -7.72388,-7.70188 -4.24484,0 -7.70188,3.45485 -7.70188,7.70188 l 0.004,77.45232 c 2.13012,30.77231 21.00413,34.92252 39.18717,34.92252 15.06487,0 28.59598,-7.47522 35.26801,-19.41974 0.85821,-1.38634 3.18197,-5.03483 5.93265,-9.36108 6.88328,-10.81124 12.64868,-19.89506 13.50029,-21.51026 1.89907,-3.59568 4.01818,-6.40576 6.1263,-8.12658 1.91006,-1.55798 3.07635,-3.54727 4.02478,-5.29229 0.48632,-0.90442 0.91322,-4.23824 -0.48852,-6.59061 z"
         sketch:type="MSShapeGroup"
         id="path5815"
         inkscape:connector-curvature="0"
         sodipodi:nodetypes="cccccscssssssssssssssssssssccscccccc" />
      <path
         sodipodi:nodetypes="cccccscssssssssssssssssssssccscccccc"
         inkscape:connector-curvature="0"
         id="path5827"
         sketch:type="MSShapeGroup"
         d="m 620.38061,611.30943 c -0.94843,-1.58879 -2.54162,-2.4646 -4.5177,-2.4646 -3.6683,0.0132 -8.08258,1.46775 -11.51981,3.79372 -3.17318,2.14333 -7.7679,6.1219 -11.64745,12.90175 -0.72838,1.27191 -1.92327,2.13452 -3.20178,2.34137 -0.004,-0.29487 -0.002,-0.63375 -0.002,-0.94843 0,-0.68216 0.002,-1.49196 -0.0264,-2.38538 l 0,-61.91432 c 0,-4.85438 -3.94776,-8.80215 -8.80215,-8.80215 -4.85438,0 -8.80215,3.94777 -8.80215,8.80215 l 0,47.31155 c 0,0.60515 -0.49512,1.10027 -1.10026,1.10027 -0.60515,0 -1.10027,-0.49512 -1.10027,-1.10027 l 0,-58.31423 c 0,-4.85439 -3.94777,-8.80215 -8.80215,-8.80215 -4.85439,0 -8.80215,3.94776 -8.80215,8.80215 l 0,58.31423 c 0,0.60515 -0.49512,1.10027 -1.10027,1.10027 -0.60515,0 -1.10027,-0.49512 -1.10027,-1.10027 l 0,-52.81289 c 0,-4.24704 -3.45484,-7.70188 -7.70188,-7.70188 -4.24704,0 -7.70188,3.45484 -7.70188,7.70188 l 0,57.21397 c 0,0.60515 -0.49512,1.10027 -1.10027,1.10027 -0.60515,0 -1.10027,-0.49512 -1.10027,-1.10027 l 0,-45.11102 c 0,-4.24703 -3.45484,-7.70188 -7.72388,-7.70188 -4.24484,0 -7.70188,3.45485 -7.70188,7.70188 l 0.004,77.45232 c 2.13012,30.77231 21.00413,34.92252 39.18717,34.92252 15.06487,0 28.59598,-7.47522 35.26801,-19.41974 0.85821,-1.38634 3.18197,-5.03483 5.93265,-9.36108 6.88328,-10.81124 12.64868,-19.89506 13.50029,-21.51026 1.89907,-3.59568 4.01818,-6.40576 6.1263,-8.12658 1.91006,-1.55798 3.07635,-3.54727 4.02478,-5.29229 0.48632,-0.90442 0.91322,-4.23824 -0.48852,-6.59061 z"
         style="fill:none;fill-rule:evenodd;stroke:#000000;stroke-width:2;stroke-opacity:1;stroke-miterlimit:4;stroke-dasharray:none" />
      <path
         style="fill:none;fill-rule:evenodd;stroke:#000000;stroke-width:2;stroke-opacity:1;stroke-miterlimit:4;stroke-dasharray:none"
         d="m 740.38061,611.30943 c -0.94843,-1.58879 -2.54162,-2.4646 -4.5177,-2.4646 -3.6683,0.0132 -8.08258,1.46775 -11.51981,3.79372 -3.17318,2.14333 -7.7679,6.1219 -11.64745,12.90175 -0.72838,1.27191 -1.92327,2.13452 -3.20178,2.34137 -0.004,-0.29487 -0.002,-0.63375 -0.002,-0.94843 0,-0.68216 0.002,-1.49196 -0.0264,-2.38538 l 0,-61.91432 c 0,-4.85438 -3.94776,-8.80215 -8.80215,-8.80215 -4.85438,0 -8.80215,3.94777 -8.80215,8.80215 l 0,47.31155 c 0,0.60515 -0.49512,1.10027 -1.10026,1.10027 -0.60515,0 -1.10027,-0.49512 -1.10027,-1.10027 l 0,-58.31423 c 0,-4.85439 -3.94777,-8.80215 -8.80215,-8.80215 -4.85439,0 -8.80215,3.94776 -8.80215,8.80215 l 0,58.31423 c 0,0.60515 -0.49512,1.10027 -1.10027,1.10027 -0.60515,0 -1.10027,-0.49512 -1.10027,-1.10027 l 0,-52.81289 c 0,-4.24704 -3.45484,-7.70188 -7.70188,-7.70188 -4.24704,0 -7.70188,3.45484 -7.70188,7.70188 l 0,57.21397 c 0,0.60515 -0.49512,1.10027 -1.10027,1.10027 -0.60515,0 -1.10027,-0.49512 -1.10027,-1.10027 l 0,-45.11102 c 0,-4.24703 -3.45484,-7.70188 -7.72388,-7.70188 -4.24484,0 -7.70188,3.45485 -7.70188,7.70188 l 0.004,77.45232 c 2.13012,30.77231 21.00413,34.92252 39.18717,34.92252 15.06487,0 28.59598,-7.47522 35.26801,-19.41974 0.85821,-1.38634 3.18197,-5.03483 5.93265,-9.36108 6.88328,-10.81124 12.64868,-19.89506 13.50029,-21.51026 1.89907,-3.59568 4.01818,-6.40576 6.1263,-8.12658 1.91006,-1.55798 3.07635,-3.54727 4.02478,-5.29229 0.48632,-0.90442 0.91322,-4.23824 -0.48852,-6.59061 z"
         sketch:type="MSShapeGroup"
         id="path5839"
         inkscape:connector-curvature="0"
         sodipodi:nodetypes="cccccscssssssssssssssssssssccscccccc" />
      <path
         sodipodi:nodetypes="cccccscssssssssssssssssssssccscccccc"
         inkscape:connector-curvature="0"
         id="path5851"
         sketch:type="MSShapeGroup"
         d="m 860.38061,611.30943 c -0.94843,-1.58879 -2.54162,-2.4646 -4.5177,-2.4646 -3.6683,0.0132 -8.08258,1.46775 -11.51981,3.79372 -3.17318,2.14333 -7.7679,6.1219 -11.64745,12.90175 -0.72838,1.27191 -1.92327,2.13452 -3.20178,2.34137 -0.004,-0.29487 -0.002,-0.63375 -0.002,-0.94843 0,-0.68216 0.002,-1.49196 -0.0264,-2.38538 l 0,-61.91432 c 0,-4.85438 -3.94776,-8.80215 -8.80215,-8.80215 -4.85438,0 -8.80215,3.94777 -8.80215,8.80215 l 0,47.31155 c 0,0.60515 -0.49512,1.10027 -1.10026,1.10027 -0.60515,0 -1.10027,-0.49512 -1.10027,-1.10027 l 0,-58.31423 c 0,-4.85439 -3.94777,-8.80215 -8.80215,-8.80215 -4.85439,0 -8.80215,3.94776 -8.80215,8.80215 l 0,58.31423 c 0,0.60515 -0.49512,1.10027 -1.10027,1.10027 -0.60515,0 -1.10027,-0.49512 -1.10027,-1.10027 l 0,-52.81289 c 0,-4.24704 -3.45484,-7.70188 -7.70188,-7.70188 -4.24704,0 -7.70188,3.45484 -7.70188,7.70188 l 0,57.21397 c 0,0.60515 -0.49512,1.10027 -1.10027,1.10027 -0.60515,0 -1.10027,-0.49512 -1.10027,-1.10027 l 0,-45.11102 c 0,-4.24703 -3.45484,-7.70188 -7.72388,-7.70188 -4.24484,0 -7.70188,3.45485 -7.70188,7.70188 l 0.004,77.45232 c 2.13012,30.77231 21.00413,34.92252 39.18717,34.92252 15.06487,0 28.59598,-7.47522 35.26801,-19.41974 0.85821,-1.38634 3.18197,-5.03483 5.93265,-9.36108 6.88328,-10.81124 12.64868,-19.89506 13.50029,-21.51026 1.89907,-3.59568 4.01818,-6.40576 6.1263,-8.12658 1.91006,-1.55798 3.07635,-3.54727 4.02478,-5.29229 0.48632,-0.90442 0.91322,-4.23824 -0.48852,-6.59061 z"
         style="fill:none;fill-rule:evenodd;stroke:#000000;stroke-width:2;stroke-opacity:1;stroke-miterlimit:4;stroke-dasharray:none" />
      <path
         style="fill:none;fill-rule:evenodd;stroke:#000000;stroke-width:2;stroke-opacity:1;stroke-miterlimit:4;stroke-dasharray:none"
         d="m 980.38061,611.30943 c -0.94843,-1.58879 -2.54162,-2.4646 -4.5177,-2.4646 -3.6683,0.0132 -8.08258,1.46775 -11.51981,3.79372 -3.17318,2.14333 -7.7679,6.1219 -11.64745,12.90175 -0.72838,1.27191 -1.92327,2.13452 -3.20178,2.34137 -0.004,-0.29487 -0.002,-0.63375 -0.002,-0.94843 0,-0.68216 0.002,-1.49196 -0.0264,-2.38538 l 0,-61.91432 c 0,-4.85438 -3.94776,-8.80215 -8.80215,-8.80215 -4.85438,0 -8.80215,3.94777 -8.80215,8.80215 l 0,47.31155 c 0,0.60515 -0.49512,1.10027 -1.10026,1.10027 -0.60515,0 -1.10027,-0.49512 -1.10027,-1.10027 l 0,-58.31423 c 0,-4.85439 -3.94777,-8.80215 -8.80215,-8.80215 -4.85439,0 -8.80215,3.94776 -8.80215,8.80215 l 0,58.31423 c 0,0.60515 -0.49512,1.10027 -1.10027,1.10027 -0.60515,0 -1.10027,-0.49512 -1.10027,-1.10027 l 0,-52.81289 c 0,-4.24704 -3.45484,-7.70188 -7.70188,-7.70188 -4.24704,0 -7.70188,3.45484 -7.70188,7.70188 l 0,57.21397 c 0,0.60515 -0.49512,1.10027 -1.10027,1.10027 -0.60515,0 -1.10027,-0.49512 -1.10027,-1.10027 l 0,-45.11102 c 0,-4.24703 -3.45484,-7.70188 -7.72388,-7.70188 -4.24484,0 -7.70188,3.45485 -7.70188,7.70188 l 0.004,77.45232 c 2.13012,30.77231 21.00413,34.92252 39.18717,34.92252 15.06487,0 28.59598,-7.47522 35.26801,-19.41974 0.85821,-1.38634 3.18197,-5.03483 5.93265,-9.36108 6.88328,-10.81124 12.64868,-19.89506 13.50029,-21.51026 1.89907,-3.59568 4.01818,-6.40576 6.1263,-8.12658 1.91006,-1.55798 3.07635,-3.54727 4.02478,-5.29229 0.48632,-0.90442 0.91322,-4.23824 -0.48852,-6.59061 z"
         sketch:type="MSShapeGroup"
         id="path5863"
         inkscape:connector-curvature="0"
         sodipodi:nodetypes="cccccscssssssssssssssssssssccscccccc" />
    </g>
    <flowRoot
       style="font-style:normal;font-weight:normal;font-size:24.20590973px;line-height:125%;font-family:Sans;letter-spacing:0px;word-spacing:0px;fill:none;fill-opacity:1;stroke:#000000;stroke-width:2;stroke-linecap:butt;stroke-linejoin:miter;stroke-opacity:1;stroke-miterlimit:4;stroke-dasharray:none"
       id="flowRoot5865"
       xml:space="preserve"><flowRegion
         id="flowRegion5867"><rect
           y="691.49554"
           x="849.47137"
           height="76.92556"
           width="209.79698"
           id="rect5869"
           style="fill:none;stroke:#000000;stroke-opacity:1;stroke-width:2;stroke-miterlimit:4;stroke-dasharray:none" /></flowRegion><flowPara
         id="flowPara5871" /></flowRoot>  </g>
</svg>
